<?xml version="1.0" encoding="UTF-8"?>
<svg width="561px" height="145px" viewBox="0 0 561 145" version="1.1" xmlns="http://www.w3.org/2000/svg" xmlns:xlink="http://www.w3.org/1999/xlink">
    <!-- Generator: Sketch 58 (84663) - https://sketch.com -->
    <title>Group 3</title>
    <desc>Created with Sketch.</desc>
    <g id="Page-1" stroke="none" stroke-width="1" fill="none" fill-rule="evenodd">
        <g id="A4" transform="translate(-132.000000, -121.000000)">
            <g id="Group-3" transform="translate(132.000000, 118.000000)">
                <circle id="Oval" fill="#8DD5FF" cx="42" cy="66" r="42"></circle>
                <g id="Group" transform="translate(212.500000, 66.000000) rotate(180.000000) translate(-212.500000, -66.000000) translate(136.000000, 0.000000)">
                    <circle id="Oval-Copy-3" fill="#EDB7B7" transform="translate(45.000000, 87.000000) rotate(183.000000) translate(-45.000000, -87.000000) " cx="45" cy="87" r="42"></circle>
                    <circle id="Oval-Copy-5" fill="#EDB7B7" transform="translate(108.000000, 87.000000) rotate(183.000000) translate(-108.000000, -87.000000) " cx="108" cy="87" r="42"></circle>
                    <circle id="Oval-Copy-4" fill="#EDB7B7" transform="translate(75.000000, 45.000000) rotate(183.000000) translate(-75.000000, -45.000000) " cx="75" cy="45" r="42"></circle>
                    <g id="testing" transform="translate(55.000000, 49.000000)" fill="#E5A3A3" fill-rule="nonzero">
                        <path d="M0.531640625,14.8624219 C0.421015625,15.6396094 1.09078125,16.2990625 1.85789063,16.1892969 C1.86820313,16.1878125 13.4488281,14.5323438 13.4584375,14.5309375 C13.8978906,14.4682031 14.2641406,14.1625 14.4044531,13.7414844 C14.5448438,13.3203906 14.4352344,12.8560938 14.1213281,12.5422656 L11.6769531,10.0978125 C14.0217969,8.13726562 16.9957813,7.03125 20,7.03125 C23.5292969,7.03125 26.9609375,8.52289063 29.415,11.1235938 C31.9004687,13.7577344 33.1546094,17.1825 32.9464062,20.7670313 C32.9260156,21.1180469 33.0642969,21.4596875 33.323125,21.6977344 C33.5824219,21.9360938 33.934375,22.0447656 34.2821094,21.9951563 L38.9932812,21.3217188 C39.5667969,21.2397656 39.9942969,20.7509375 39.9992187,20.1715625 C40.0445312,14.825 37.9778906,9.77117188 34.1800781,5.94101563 C30.428125,2.15710938 25.3603125,0 20,0 C15.1492187,0 10.3632031,1.85164063 6.69414063,5.115 L4.17765625,2.59859375 C3.86375,2.2846875 3.399375,2.17523437 2.9784375,2.31546875 C2.55726563,2.45585937 2.25164063,2.82210938 2.18890625,3.26148437 L0.531640625,14.8624219 Z M4.17765625,5.913125 L5.84125,7.57664062 C6.29875,8.03429687 7.04078125,8.03421875 7.49851563,7.57664062 C10.8241406,4.25109375 15.3807813,2.34375 20,2.34375 C24.7155469,2.34375 29.1604688,4.20734375 32.5157813,7.59117188 C35.63125,10.7332031 37.4277344,14.805 37.6358594,19.148125 L35.3035938,19.4814844 C35.1792969,15.811875 33.7169531,12.2678125 31.1195313,9.51515625 C28.2291406,6.45179688 24.2353125,4.6875 20,4.6875 C15.9953906,4.6875 12.0422656,6.34398438 9.1540625,9.2321875 C8.69640625,9.68976562 8.69640625,10.4317969 9.1540625,10.8894531 L10.8067969,12.5422656 L10.7425781,12.5514062 C10.7383594,12.5519531 10.7342188,12.5519531 10.73,12.5525781 C1.8421875,13.8229687 3.22117188,13.6258594 3.0728125,13.6471094 L4.17765625,5.913125 Z" id="Shape"></path>
                        <path d="M0.00078125,19.8285156 C-0.04453125,25.1750781 2.02210937,30.2289062 5.81992187,34.0590625 C9.57195312,37.8430469 14.6396875,40 20,40 C24.8507812,40 29.6367969,38.1483594 33.3057812,34.885 L35.8222656,37.4014062 C36.1361719,37.7153125 36.6005469,37.8247656 37.0214844,37.6845312 C37.4426562,37.5441406 37.7482812,37.1778906 37.8110156,36.7385156 L39.4682812,25.1375781 C39.5203906,24.7724219 39.3976562,24.4040625 39.1367969,24.1432031 C38.8758594,23.8823437 38.5075,23.7596094 38.1424219,23.8117187 L26.5414844,25.4689844 C26.1020312,25.5317187 25.7357812,25.8374219 25.5954687,26.2585156 C25.4550781,26.6796094 25.5646875,27.1439063 25.8785937,27.4577344 L28.3230469,29.9021875 C25.9782031,31.8627344 23.0042187,32.96875 20,32.96875 C16.470625,32.96875 13.0389844,31.4771094 10.5849219,28.8763281 C8.09945312,26.2422656 6.8453125,22.8174219 7.05351562,19.2328906 C7.07390625,18.881875 6.935625,18.5402344 6.67679687,18.3021875 C6.41796875,18.0641406 6.06570312,17.9550781 5.7178125,18.0047656 L1.00671875,18.6782031 C0.433203125,18.7603125 0.005625,19.2491406 0.00078125,19.8285156 Z M4.69625,20.5185156 C4.820625,24.1882031 6.28289062,27.7321875 8.8803125,30.4848437 C11.7708594,33.5482031 15.7646875,35.3125 20,35.3125 C24.0046094,35.3125 27.9577344,33.6560156 30.8459375,30.7678125 C31.3032813,30.3105469 31.3035938,29.568125 30.8459375,29.1105469 L29.1932031,27.4577344 L36.9271094,26.3528906 L35.8222656,34.086875 L34.1586719,32.4233594 C33.7010938,31.9657031 32.9590625,31.9657031 32.5014063,32.4233594 C29.1758594,35.7489063 24.6192969,37.65625 20,37.65625 C15.2844531,37.65625 10.8395312,35.7926563 7.48421875,32.4088281 C4.36875,29.266875 2.57226562,25.195 2.36414062,20.851875 L4.69625,20.5185156 Z" id="Shape"></path>
                    </g>
                </g>
                <circle id="Oval-Copy" fill="#8FD596" cx="383" cy="66" r="42"></circle>
                <circle id="Oval-Copy-2" fill="#FFB975" cx="519" cy="66" r="42"></circle>
                <g id="Group-2" transform="translate(90.000000, 49.000000)" fill="#D8D8D8">
                    <polygon id="Triangle" transform="translate(32.000000, 17.500000) rotate(90.000000) translate(-32.000000, -17.500000) " points="32 10 49 25 15 25"></polygon>
                    <rect id="Rectangle" x="0" y="6" width="25" height="23"></rect>
                </g>
                <g id="Group-2-Copy" transform="translate(295.000000, 49.000000)" fill="#D8D8D8">
                    <polygon id="Triangle" transform="translate(32.000000, 17.500000) rotate(90.000000) translate(-32.000000, -17.500000) " points="32 10 49 25 15 25"></polygon>
                    <rect id="Rectangle" x="0" y="6" width="25" height="23"></rect>
                </g>
                <g id="Group-2-Copy-2" transform="translate(431.000000, 49.000000)" fill="#D8D8D8">
                    <polygon id="Triangle" transform="translate(32.000000, 17.500000) rotate(90.000000) translate(-32.000000, -17.500000) " points="32 10 49 25 15 25"></polygon>
                    <rect id="Rectangle" x="0" y="6" width="25" height="23"></rect>
                </g>
                <text id="Define" font-family="Roboto-Medium, Roboto" font-size="11" font-weight="400" fill="#494949">
                    <tspan x="24" y="69">DEFINE</tspan>
                </text>
                <text id="build-&amp;-deploy" font-family="Roboto-Medium, Roboto" font-size="11" font-weight="400" line-spacing="10" fill="#494949">
                    <tspan x="361.166504" y="68">BUILD &amp; </tspan>
                    <tspan x="361" y="78">DEPLOY</tspan>
                </text>
                <text id="analyse-&amp;-Iterate" font-family="Roboto-Medium, Roboto" font-size="11" font-weight="400" line-spacing="10" fill="#494949">
                    <tspan x="494.860596" y="68">ANALYSE</tspan>
                    <tspan x="492.5" y="78">&amp; ITERATE</tspan>
                </text>
                <text id="ideate" font-family="Roboto-Medium, Roboto" font-size="11" font-weight="400" fill="#494949">
                    <tspan x="156" y="40">IDEATE</tspan>
                </text>
                <text id="prototype" font-family="Roboto-Medium, Roboto" font-size="11" font-weight="400" fill="#494949">
                    <tspan x="183" y="105">PROTOTYPE</tspan>
                </text>
                <text id="user-test" font-family="Roboto-Medium, Roboto" font-size="11" font-weight="400" line-spacing="10" fill="#494949">
                    <tspan x="240" y="38">USER</tspan>
                    <tspan x="241.025879" y="48">TEST</tspan>
                </text>
                <path d="M212.5,140.5 L520.5,140.5" id="Line" stroke="#1A1A1A" stroke-width="2" stroke-linecap="square" stroke-dasharray="10"></path>
                <path d="M383.5,110.5 L383.5,140.5" id="Line-2" stroke="#1A1A1A" stroke-width="2" stroke-linecap="square" stroke-dasharray="7"></path>
                <path d="M212.5,130.5 L212.5,140.5" id="Line-2-Copy-2" stroke="#1A1A1A" stroke-width="2" stroke-linecap="square" stroke-dasharray="7"></path>
                <path d="M520.5,110.5 L520.5,140.5" id="Line-2-Copy" stroke="#1A1A1A" stroke-width="2" stroke-linecap="square" stroke-dasharray="7"></path>
                <polygon id="Triangle" fill="#000000" transform="translate(317.500000, 141.000000) scale(-1, 1) rotate(90.000000) translate(-317.500000, -141.000000) " points="317.5 138 324 144 311 144"></polygon>
                <polygon id="Triangle-Copy" fill="#000000" transform="translate(458.500000, 141.000000) scale(-1, 1) rotate(90.000000) translate(-458.500000, -141.000000) " points="458.5 138 465 144 452 144"></polygon>
            </g>
        </g>
    </g>
</svg>